<?xml version="1.0" encoding="UTF-8" standalone="no"?>
<svg width="116px" height="16px" viewBox="0 0 116 16" version="1.1" xmlns="http://www.w3.org/2000/svg" xmlns:xlink="http://www.w3.org/1999/xlink" xmlns:sketch="http://www.bohemiancoding.com/sketch/ns">
    <!-- Generator: Sketch 3.4.2 (15855) - http://www.bohemiancoding.com/sketch -->
    <title>braintree</title>
    <desc>Created with Sketch.</desc>
    <defs></defs>
    <g id="Page-1" stroke="none" stroke-width="1" fill="none" fill-rule="evenodd" sketch:type="MSPage">
        <g id="braintree" sketch:type="MSLayerGroup" fill="#000000">
            <path d="M4.29714894,13.4704571 L6.99908511,13.4704571 C9.08523404,13.4704571 10.128,12.7920898 10.128,11.482498 C10.128,10.1961714 9.01365957,9.49515102 6.83310638,9.49515102 L4.29714894,9.49515102 L4.29714894,13.4704571 L4.29714894,13.4704571 L4.29714894,13.4704571 L4.29714894,13.4704571 Z M4.29714894,3.88270204 L4.29714894,7.5776 L6.66712766,7.5776 C8.44476596,7.5776 9.36906383,6.92249796 9.36906383,5.7298449 C9.36906383,4.51392653 8.42131915,3.8820898 6.64368085,3.8820898 L4.29714894,3.8820898 L4.29714894,3.88270204 L4.29714894,3.88270204 L4.29714894,3.88270204 Z M0.529,15.4578041 L0.529,13.4704571 L2.11659574,13.4704571 L2.11659574,3.88270204 L0.529,3.88270204 L0.529,1.89474286 L6.88061702,1.89474286 C9.79604255,1.89474286 11.5730638,3.2276 11.5730638,5.54249796 C11.5730638,7.0620898 10.6728298,7.9976 9.53504255,8.4420898 C11.1701489,8.88657959 12.332,10.0320898 12.332,11.5988245 C12.332,14.0771918 10.388383,15.4571918 7.21257447,15.4571918 L0.529,15.4571918 L0.529,15.4578041 L0.529,15.4578041 Z M23.8517872,8.39617143 C23.6148511,7.60086531 23.0218936,7.1331102 22.2401277,7.1331102 C20.4149787,7.1331102 18.6848511,8.46596735 18.6848511,10.8978041 L18.6848511,13.4704571 L22.192617,13.4704571 L22.192617,15.4578041 L14.3706383,15.4578041 L14.3706383,13.4704571 L16.5987021,13.4704571 L16.5987021,7.48392653 L14.8451277,7.48392653 L14.8451277,5.49596735 L18.6607872,5.49596735 L18.6607872,7.17964082 C19.3006383,6.01025306 20.6044043,5.16841633 22.3345319,5.16841633 C24.2781489,5.16841633 25.4868936,6.26739592 25.8422979,7.83413061 L23.8517872,8.39617143 L23.8517872,8.39617143 Z M34.517617,11.4353551 C33.8543191,11.2014776 32.8590638,11.0141306 31.9341489,11.0141306 C30.6069362,11.0141306 29.326617,11.4353551 29.326617,12.6280082 C29.326617,13.5163755 30.1324468,13.9376 31.2461702,13.9376 C32.7868723,13.9376 34.517,13.1190286 34.517,11.7157633 L34.517,11.4353551 L34.517617,11.4353551 L34.517617,11.4353551 Z M34.517617,9.65862041 L34.517617,9.09719184 C34.517617,7.69392653 33.3798298,7.10923265 32.1476383,7.10923265 C30.9864043,7.10923265 29.9905319,7.57698776 29.1847021,8.30188571 L27.8099787,6.82882449 C28.7583404,5.9631102 30.109,5.16841633 32.1476383,5.16841633 C34.6835957,5.16841633 36.6506596,6.50188571 36.6506596,9.02678367 L36.6506596,13.4704571 L38.1204043,13.4704571 L38.1204043,15.4578041 L34.517617,15.4578041 L34.517617,14.4053551 C33.9727872,15.2710694 32.5030426,15.7853551 31.0573617,15.7853551 C28.9718298,15.7853551 27.1701277,14.7329061 27.1701277,12.6518857 C27.1701277,10.1961714 29.6116809,9.26127347 31.8391277,9.26127347 C32.9300213,9.26127347 33.8302553,9.47127347 34.517617,9.65862041 L34.517617,9.65862041 Z M44.5442128,0.468212245 L46.8907447,0.468212245 L46.8907447,3.50800816 L44.5442128,3.50800816 L44.5442128,0.468212245 L44.5442128,0.468212245 Z M50.7773617,13.4704571 L50.7773617,15.4578041 L40.5860213,15.4578041 L40.5860213,13.4704571 L44.8045957,13.4704571 L44.8045957,7.48392653 L41.5812766,7.48392653 L41.5812766,5.49596735 L46.8901277,5.49596735 L46.8901277,13.4698449 L50.7773617,13.4698449 L50.7773617,13.4704571 L50.7773617,13.4704571 Z M53.2904894,13.4704571 L54.8311915,13.4704571 L54.8311915,7.48392653 L53.3848936,7.48392653 L53.3848936,5.49596735 L56.8932766,5.49596735 L56.8932766,6.78168163 C57.5096809,5.79964082 58.789383,5.16841633 60.3535319,5.16841633 C62.6050426,5.16841633 64.2173191,6.57168163 64.2173191,8.84004898 L64.2173191,13.4698449 L65.7574043,13.4698449 L65.7574043,15.4571918 L60.5201277,15.4571918 L60.5201277,13.4698449 L62.1311702,13.4698449 L62.1311702,9.40086531 C62.1311702,7.67066122 61.0643404,7.17964082 60.0925319,7.17964082 C58.5049362,7.17964082 56.9167234,8.34902857 56.9167234,10.1496408 L56.9167234,13.4704571 L58.528383,13.4704571 L58.528383,15.4578041 L53.2904894,15.4578041 L53.2904894,13.4704571 L53.2904894,13.4704571 L53.2904894,13.4704571 Z M68.6253191,7.48331429 L65.9943404,7.48331429 L65.9943404,5.49596735 L68.6253191,5.49596735 L68.6253191,1.89474286 L70.7114681,1.89474286 L70.7114681,5.49596735 L75.6174043,5.49596735 L75.6174043,7.48331429 L70.7114681,7.48331429 L70.7114681,11.6692327 C70.7114681,13.212702 71.8023617,13.8445388 73.058,13.8445388 C74.2432979,13.8445388 75.2385532,13.1894367 75.9734255,12.4645388 L77.3722128,13.8910694 C76.4479149,14.8731102 75.0256809,15.7853551 73.058617,15.7853551 C70.5232766,15.7853551 68.6259362,14.4053551 68.6259362,11.7402531 L68.6259362,7.48331429 L68.6253191,7.48331429 L68.6253191,7.48331429 Z M88.748234,8.39617143 C88.5112979,7.60086531 87.9189574,7.1331102 87.1371915,7.1331102 C85.3120426,7.1331102 83.5819149,8.46596735 83.5819149,10.8978041 L83.5819149,13.4704571 L87.0902979,13.4704571 L87.0902979,15.4578041 L79.2683191,15.4578041 L79.2683191,13.4704571 L81.495766,13.4704571 L81.495766,7.48392653 L79.7415745,7.48392653 L79.7415745,5.49596735 L83.5578511,5.49596735 L83.5578511,7.17964082 C84.1977021,6.01025306 85.5014681,5.16841633 87.2315957,5.16841633 C89.1745957,5.16841633 90.3839574,6.26739592 90.7393617,7.83413061 L88.748234,8.39617143 L88.748234,8.39617143 Z M94.3668298,9.44800816 L100.575915,9.44800816 C100.268021,8.02147755 98.9883191,7.06270204 97.5660851,7.06270204 C95.9544255,7.06270204 94.722234,8.04474286 94.3668298,9.44800816 L94.3668298,9.44800816 Z M102.780532,13.9376 C101.738383,15.0133143 99.8891702,15.7853551 97.8270851,15.7853551 C94.4384043,15.7853551 92.0678085,13.5402531 92.0678085,10.4771918 C92.0678085,7.41351837 94.3674468,5.16841633 97.5667021,5.16841633 C100.742511,5.16841633 102.970574,7.5776 102.970574,10.8506612 L102.970574,11.2014776 L94.2718085,11.2014776 C94.6272128,12.8618857 96.026,13.8671918 97.8511489,13.8671918 C99.3677872,13.8671918 100.670936,13.2598449 101.382979,12.4878041 L102.780532,13.9376 L102.780532,13.9376 Z M107.331681,9.44800816 L113.541383,9.44800816 C113.233489,8.02147755 111.953787,7.06270204 110.531553,7.06270204 C108.919894,7.06270204 107.687085,8.04474286 107.331681,9.44800816 L107.331681,9.44800816 Z M115.745383,13.9376 C114.703234,15.0133143 112.854021,15.7853551 110.792553,15.7853551 C107.403255,15.7853551 105.03266,13.5402531 105.03266,10.4771918 C105.03266,7.41351837 107.331681,5.16841633 110.531553,5.16841633 C113.707362,5.16841633 115.936043,7.5776 115.936043,10.8506612 L115.936043,11.2014776 L107.23666,11.2014776 C107.592681,12.8618857 108.990851,13.8671918 110.816,13.8671918 C112.332638,13.8671918 113.636404,13.2598449 114.34783,12.4878041 L115.745383,13.9376 L115.745383,13.9376 L115.745383,13.9376 Z" id="Fill-1" sketch:type="MSShapeGroup"></path>
        </g>
    </g>
</svg>