<?xml version="1.0" encoding="UTF-8"?>
<svg width="139px" height="56px" viewBox="0 0 139 56" version="1.1" xmlns="http://www.w3.org/2000/svg" xmlns:xlink="http://www.w3.org/1999/xlink">
    <!-- Generator: Sketch 43.2 (39069) - http://www.bohemiancoding.com/sketch -->
    <title>g2-crowd-chargebee</title>
    <desc>Created with Sketch.</desc>
    <defs></defs>
    <g id="Page-1" stroke="none" stroke-width="1" fill="none" fill-rule="evenodd">
        <g id="g2-crowd-chargebee" fill-rule="nonzero">
            <g id="Group" transform="translate(10.487379, 0.000000)" fill="#456473">
                <path d="M24.3456265,5.75577711 C24.8676575,5.0728883 25.1524017,4.43877726 25.1524017,3.70711068 C25.1524017,2.53644415 24.2507118,1.70722202 23.0642778,1.70722202 C22.0202158,1.70722202 21.0710686,2.39011083 20.9761539,3.70711068 L19.4100609,3.3168885 C19.6948051,1.31699985 21.3558127,0.0975555442 23.1591925,0.0975555442 C25.199859,0.0975555442 26.9083241,1.56088871 26.9083241,3.70711068 C26.9083241,4.87777721 26.3862931,5.9508882 25.6269753,6.82888809 C24.0608824,8.63366566 24.0608824,8.73122121 22.3524173,10.7311099 L26.9083241,10.7311099 L26.9083241,12.3895541 L19.5998904,12.3895541 L19.5998904,11.7066653 L24.3456265,5.75577711 Z" id="Shape"></path>
                <path d="M19.552433,20.7305531 L19.552433,14.6333316 L32.4608354,14.6333316 C32.6032075,15.4625538 32.6981222,16.3893314 32.6981222,17.2185536 C32.6981222,26.4863303 25.3896885,34.0468849 16.3253324,34.0468849 C7.26097633,34.0468849 0,26.535108 0,17.2185536 C0,7.90199908 7.3084337,0.390222177 16.3727898,0.390222177 L16.3727898,6.34111037 C10.4880769,6.34111037 5.78979812,11.1701098 5.78979812,17.2185536 C5.78979812,23.2669973 10.4880769,28.0959967 16.3727898,28.0959967 C21.0236112,28.0959967 24.9625722,24.9742193 26.3862931,20.6817754" id="Shape"></path>
                <path d="M44.752292,16.4381092 C44.752292,11.9993319 45.0370362,10.2433321 45.7488966,9.07266561 C46.6505865,7.70688799 48.3590515,6.97522141 50.5895475,6.97522141 C52.5827567,6.97522141 54.2437644,7.56055468 55.1454542,8.63366566 C55.8098573,9.31655447 56.0471441,10.4384432 56.0471441,12.0968875 L56.0471441,13.1212207 L52.3929273,13.1212207 C52.2980125,11.2188876 52.2980125,10.8774432 52.0132684,10.5359988 C51.7285242,10.0969988 51.2064932,9.85310997 50.5420902,9.85310997 C49.8776871,9.85310997 49.213284,10.1457766 48.9759972,10.6335543 C48.5963383,11.3164431 48.4539663,12.7797763 48.4539663,16.4381092 C48.4539663,19.5111088 48.5963383,21.2183309 48.8336251,21.9499974 C49.070912,22.6328863 49.6404003,22.8767751 50.4471754,22.8767751 C51.8708963,22.8767751 52.2980125,22.1938863 52.3929273,19.3647755 L56.0471441,19.3647755 C56.0471441,21.7548864 55.904772,22.7304418 55.3827411,23.5596639 C54.718338,24.8766638 53.009873,25.6083304 50.4471754,25.6083304 C47.4573617,25.6083304 45.7488966,24.5352194 45.0844936,22.3402196 C44.8946641,21.5109975 44.752292,19.4135533 44.752292,16.4381092 Z" id="Shape"></path>
                <path d="M58.1827254,7.31666582 L63.8301514,7.31666582 C66.5826784,7.31666582 67.0097947,7.41422136 68.0063993,8.14588794 C68.8131744,8.82877675 69.287748,10.0482211 69.287748,11.7554431 C69.287748,13.2187762 69.0030038,14.340665 68.4809729,15.1211094 C67.9589419,15.8039982 67.4369109,16.047887 66.1555621,16.3405537 C68.4809729,16.6332203 69.3352054,17.8038868 69.3352054,20.8281087 C69.3352054,21.3646642 69.4301201,22.3402196 69.4301201,23.6084417 C69.5250348,24.4376638 69.5250348,24.6327749 69.7148643,25.4132193 L65.8233606,25.4132193 C65.6809885,24.2425527 65.6809885,24.2425527 65.6809885,21.9987752 C65.6809885,19.8525532 65.5386164,18.7306645 65.1115002,18.2428868 C64.826756,17.9502201 64.4470971,17.8038868 63.5454073,17.8038868 L61.7894849,17.8038868 L61.7894849,25.4132193 L58.1827254,25.4132193 L58.1827254,7.31666582 L58.1827254,7.31666582 L58.1827254,7.31666582 Z M63.2132057,15.2186649 C64.826756,15.2186649 65.4437017,14.5357761 65.4437017,12.633443 C65.4437017,11.6091098 65.1589576,10.8286654 64.7792987,10.487221 C64.4945545,10.1945544 64.2098103,10.1945544 63.3081205,10.1945544 L61.7420275,10.1945544 L61.7420275,15.3162204 L63.2132057,15.3162204 L63.2132057,15.2186649 L63.2132057,15.2186649 Z" id="Shape"></path>
                <path d="M71.518244,16.3405537 C71.518244,12.1456653 71.7555308,10.6823321 72.4199339,9.36533224 C73.226709,7.85322131 75.0300888,6.97522141 77.4978716,6.97522141 C80.2503986,6.97522141 82.148693,8.0483324 82.8605535,10.0482211 C83.2402123,10.9749987 83.3825844,12.9748874 83.3825844,16.3893314 C83.3825844,20.1452199 83.1452976,21.9987752 82.7181814,22.9743307 C81.9114062,24.7303305 80.1080265,25.5595526 77.5927863,25.5595526 C75.0775461,25.5595526 73.3690811,24.7791082 72.5148486,23.1694417 C71.6606161,22.0963308 71.518244,20.6329976 71.518244,16.3405537 Z M77.4504142,22.9255529 C78.4944762,22.9255529 79.2063366,22.3889974 79.4436234,21.3158864 C79.5859955,20.6329976 79.6809102,18.2428868 79.6809102,15.7064426 C79.6809102,13.0236652 79.5385381,11.3652209 79.253794,10.7311099 C79.0165072,10.1457766 78.3521041,9.80433219 77.4978716,9.80433219 C76.501267,9.80433219 75.7894066,10.2433321 75.5521198,11.0237765 C75.3148329,11.7066653 75.2673756,13.6089984 75.2673756,16.5356647 C75.2673756,18.9257756 75.3622903,20.5354421 75.5046624,21.2671086 C75.5995771,22.3889974 76.3588949,22.9255529 77.4504142,22.9255529 Z" id="Shape"></path>
                <path d="M84.5215611,7.31666582 L88.175778,7.31666582 L89.362212,13.901665 C89.7893283,16.2917759 89.884243,18.4867756 90.0266151,22.681664 C90.6910181,17.1697758 91.0232197,15.5601093 91.3554212,13.901665 L92.779142,7.31666582 L96.8604751,7.31666582 L98.1892813,13.901665 C98.8536843,16.9746647 98.8536843,18.9745533 99.0909711,22.681664 C99.3282579,19.6086644 99.6130021,17.4136646 100.135033,13.901665 L101.27401,7.31666582 L104.548568,7.31666582 L101.036723,25.461997 L97.0028472,25.461997 L95.2943822,17.0234425 C95.009638,15.5601093 94.6299791,12.194443 94.6299791,10.2921099 C94.1079482,14.340665 94.0604908,14.974776 93.6333745,17.0234425 L91.9249095,25.461997 L87.8910338,25.461997 L84.5215611,7.31666582 Z" id="Shape"></path>
                <path d="M106.162118,7.31666582 L111.097684,7.31666582 C113.945125,7.31666582 114.846815,7.46299913 115.748505,8.09711017 C116.887482,8.9263323 117.45697,10.3896655 117.694257,13.2187762 C117.789172,14.2918872 117.836629,15.7552204 117.836629,17.0722202 C117.836629,20.340331 117.599342,21.9012197 117.172226,23.0231084 C116.507823,24.5352194 114.799358,25.4132193 112.521404,25.4132193 L106.351947,25.4132193 L106.351947,7.31666582 L106.162118,7.31666582 Z M111.477343,22.6328863 C112.758691,22.6328863 113.470552,22.3402196 113.660381,21.7061086 C113.945125,21.0232198 114.04004,19.9501088 114.04004,16.9746647 C114.04004,13.706554 113.945125,12.2919986 113.612924,11.4627764 C113.32818,10.7798876 112.616319,10.2921099 111.572257,10.2921099 L109.958707,10.2921099 L109.958707,22.681664 L111.477343,22.6328863 L111.477343,22.6328863 L111.477343,22.6328863 Z" id="Shape"></path>
                <rect id="Rectangle-path" x="38.2506335" y="0.195111088" width="1.18643404" height="33.4127739"></rect>
            </g>
            <path d="M9.93466426,43.0398005 L7.43518235,43.0398005 L7.43518235,47.8594579 L2.96836629,47.8594579 L2.96836629,43.0398005 L0.485010075,43.0398005 L0.485010075,54.9086167 L2.96836629,54.9086167 L2.96836629,50.0397791 L7.43518235,50.0397791 L7.43518235,54.9086167 L9.93466426,54.9086167 L9.93466426,43.0398005 Z M14.7884969,43.0398005 L12.3051407,43.0398005 L12.3051407,54.9086167 L14.7884969,54.9086167 L14.7884969,43.0398005 Z M25.1573154,54.9086167 L26.9633926,54.9086167 L26.9633926,48.7283077 L22.3836967,48.7283077 L22.3836967,50.5807611 L24.5122878,50.5807611 L24.5122878,51.0069893 C24.5122878,52.1545268 23.6898776,53.0725568 22.1256857,53.0725568 C20.0777231,53.0725568 19.1746845,51.7610853 19.1746845,48.9414218 C19.1746845,46.400446 20.1583516,44.9086473 22.2063142,44.9086473 C23.8833859,44.9086473 24.4155337,45.941431 24.5445392,47.2037222 L26.8666385,46.9742147 C26.6570045,43.9906173 24.8025502,42.8266864 22.2546912,42.8266864 C18.5296569,42.8266864 16.5945741,45.3348755 16.5945741,49.1709293 C16.5945741,52.6299352 18.0297605,55.1053374 21.5451609,55.1053374 C22.9803473,55.1053374 24.3832823,54.5151753 24.8831787,53.4496048 L25.1573154,54.9086167 Z M38.5416379,43.0398005 L36.042156,43.0398005 L36.042156,47.8594579 L31.5753399,47.8594579 L31.5753399,43.0398005 L29.0919837,43.0398005 L29.0919837,54.9086167 L31.5753399,54.9086167 L31.5753399,50.0397791 L36.042156,50.0397791 L36.042156,54.9086167 L38.5416379,54.9086167 L38.5416379,43.0398005 Z M46.1852148,51.0725629 L46.1852148,54.9086167 L43.7179843,54.9086167 L43.7179843,43.0398005 L48.1364233,43.0398005 C51.1196759,43.0398005 52.0227145,44.8594671 52.0227145,46.7447072 C52.0227145,49.5971575 50.490774,51.0725629 47.4591443,51.0725629 L46.1852148,51.0725629 Z M46.1852148,49.0397822 L47.1850076,49.0397822 C48.4589371,49.0397822 49.4748555,48.6627342 49.4748555,46.9250346 C49.4748555,45.400449 48.5879426,45.0725812 47.3785158,45.0725812 L46.1852148,45.0725812 L46.1852148,49.0397822 Z M56.2153938,50.0069923 L60.8434668,50.0069923 L60.8434668,47.9414249 L56.2153938,47.9414249 L56.2153938,45.1545482 L61.1337292,45.1545482 L61.1337292,43.0398005 L53.7320376,43.0398005 L53.7320376,54.9086167 L61.4239916,54.9086167 L61.4239916,52.7774757 L56.2153938,52.7774757 L56.2153938,50.0069923 Z M69.5352136,49.7774849 L72.1798267,54.9086167 L69.5029622,54.9086167 L67.1969885,50.4004338 L65.6005453,50.4004338 L65.6005453,54.9086167 L63.1333147,54.9086167 L63.1333147,43.0398005 L67.6807592,43.0398005 C70.5833834,43.0398005 71.5509248,44.6299596 71.5509248,46.3840526 C71.5509248,48.1381456 70.7285146,49.2201095 69.5352136,49.7774849 Z M65.6005453,48.4168333 L66.8744747,48.4168333 C68.0355244,48.4168333 68.9869401,47.9742117 68.9869401,46.6299535 C68.9869401,45.4988094 68.2935354,45.0725812 66.9712289,45.0725812 L65.6005453,45.0725812 L65.6005453,48.4168333 Z M75.9693638,50.2528932 L80.4523055,50.2528932 L80.4523055,48.1709324 L75.9693638,48.1709324 L75.9693638,45.1545482 L80.8393221,45.1545482 L80.8393221,43.0398005 L73.4860075,43.0398005 L73.4860075,54.9086167 L75.9693638,54.9086167 L75.9693638,50.2528932 Z M87.2573466,55.1053374 C83.4033067,55.1053374 81.8229891,52.5643616 81.8229891,49.0233888 C81.8229891,45.4988094 83.7419462,42.8266864 87.5153576,42.8266864 C91.3048947,42.8266864 92.8690866,45.4988094 92.8690866,48.7938813 C92.8690866,52.6463285 91.0468837,55.1053374 87.2573466,55.1053374 Z M87.3541007,52.9741964 C89.0956752,52.9741964 90.3051019,51.8758391 90.3051019,48.9414218 C90.3051019,46.2037253 89.2569321,44.9578274 87.4669805,44.9578274 C85.5802748,44.9578274 84.3869738,46.2201187 84.3869738,48.9742086 C84.3869738,51.8102655 85.5157721,52.9741964 87.3541007,52.9741964 Z M101.060937,49.7774849 L103.70555,54.9086167 L101.028686,54.9086167 L98.722712,50.4004338 L97.1262687,50.4004338 L97.1262687,54.9086167 L94.6590382,54.9086167 L94.6590382,43.0398005 L99.2064827,43.0398005 C102.109107,43.0398005 103.076648,44.6299596 103.076648,46.3840526 C103.076648,48.1381456 102.254238,49.2201095 101.060937,49.7774849 Z M97.1262687,48.4168333 L98.4001982,48.4168333 C99.5612479,48.4168333 100.512664,47.9742117 100.512664,46.6299535 C100.512664,45.4988094 99.8192589,45.0725812 98.4969523,45.0725812 L97.1262687,45.0725812 L97.1262687,48.4168333 Z M117.396261,43.0398005 L113.703478,43.0398005 L111.252373,51.7119052 L111.18787,51.7119052 L108.72064,43.0398005 L105.011731,43.0398005 L105.011731,54.9086167 L107.285453,54.9086167 L107.285453,45.5807764 L107.349956,45.5807764 L110.010695,54.9086167 L112.252166,54.9086167 L115.009659,45.5971698 L115.074161,45.5971698 L115.074161,54.9086167 L117.396261,54.9086167 L117.396261,43.0398005 Z M122.250093,50.0069923 L126.878166,50.0069923 L126.878166,47.9414249 L122.250093,47.9414249 L122.250093,45.1545482 L127.168429,45.1545482 L127.168429,43.0398005 L119.766737,43.0398005 L119.766737,54.9086167 L127.458691,54.9086167 L127.458691,52.7774757 L122.250093,52.7774757 L122.250093,50.0069923 Z M135.569913,49.7774849 L138.214526,54.9086167 L135.537662,54.9086167 L133.231688,50.4004338 L131.635245,50.4004338 L131.635245,54.9086167 L129.168014,54.9086167 L129.168014,43.0398005 L133.715459,43.0398005 C136.618083,43.0398005 137.585624,44.6299596 137.585624,46.3840526 C137.585624,48.1381456 136.763214,49.2201095 135.569913,49.7774849 Z M131.635245,48.4168333 L132.909174,48.4168333 C134.070224,48.4168333 135.02164,47.9742117 135.02164,46.6299535 C135.02164,45.4988094 134.328235,45.0725812 133.005928,45.0725812 L131.635245,45.0725812 L131.635245,48.4168333 Z" id="HIGH-PERFORMER" fill="#FF6C36"></path>
        </g>
    </g>
</svg>