<?xml version="1.0" encoding="UTF-8"?>
<svg width="38px" height="34px" viewBox="0 0 38 34" version="1.1" xmlns="http://www.w3.org/2000/svg" xmlns:xlink="http://www.w3.org/1999/xlink">
    <!-- Generator: Sketch 44 (41411) - http://www.bohemiancoding.com/sketch -->
    <title>99uptime</title>
    <desc>Created with Sketch.</desc>
    <defs></defs>
    <g id="Page-1" stroke="none" stroke-width="1" fill="none" fill-rule="evenodd" opacity="0.400000006">
        <g id="Desktop-HD-Copy-31" transform="translate(-638.000000, -1836.000000)">
            <g id="Group-3" transform="translate(638.000000, 1835.000000)">
                <g id="99uptime">
                    <g id="Page-1">
                        <g id="Group">
                            <g id="Group-3" transform="translate(10.924138, 7.767857)">
                                <g id="Fill-1-Clipped"></g>
                            </g>
                            <g id="Group-6" transform="translate(10.924138, 7.767857)" fill-rule="nonzero" fill="#FFFFFF">
                                <path d="M13.3649876,0.208651034 C6.01800828,0.208651034 0.0623668966,6.16429241 0.0623668966,13.5112717 C0.0623668966,20.858251 6.01800828,26.8138924 13.3649876,26.8138924 C20.7119669,26.8138924 26.6676083,20.858251 26.6676083,13.5112717 C26.6676083,6.16429241 20.7119669,0.208651034 13.3649876,0.208651034 M13.3649876,2.69140966 C19.3315531,2.69140966 24.1848497,7.54569931 24.1848497,13.5112717 C24.1848497,19.4768441 19.3315531,24.3311338 13.3649876,24.3311338 C7.39941517,24.3311338 2.54512552,19.4768441 2.54512552,13.5112717 C2.54512552,7.54569931 7.39941517,2.69140966 13.3649876,2.69140966" id="Fill-4"></path>
                            </g>
                            <path d="M23.6058703,22.2097655 C23.6058703,22.5792 23.9057876,22.8791172 24.2762152,22.8791172 C24.6456497,22.8791172 24.94656,22.5792 24.94656,22.2097655 C24.94656,21.8393379 24.6456497,21.5394207 24.2762152,21.5394207 C23.9057876,21.5394207 23.6058703,21.8393379 23.6058703,22.2097655" id="Fill-11" fill="#FFFFFF" fill-rule="nonzero"></path>
                            <path d="M24.2760166,21.8858152 C24.098251,21.8858152 23.9532579,22.0308083 23.9532579,22.2095669 C23.9532579,22.3873324 24.098251,22.5323255 24.2760166,22.5323255 C24.4537821,22.5323255 24.5987752,22.3873324 24.5987752,22.2095669 C24.5987752,22.0308083 24.4537821,21.8858152 24.2760166,21.8858152 M24.2760166,23.8720221 C23.3593821,23.8720221 22.6125683,23.1262014 22.6125683,22.2095669 C22.6125683,21.2919393 23.3593821,20.5461186 24.2760166,20.5461186 C25.192651,20.5461186 25.9394648,21.2919393 25.9394648,22.2095669 C25.9394648,23.1262014 25.192651,23.8720221 24.2760166,23.8720221" id="Fill-13" fill="#FFFFFF" fill-rule="nonzero"></path>
                            <path d="M24.3957848,23.202869 C24.2110676,23.202869 24.0253572,23.1512276 23.8624883,23.0479448 L19.8106262,20.4708414 C19.34784,20.1758897 19.2117848,19.5621517 19.5057434,19.0993655 C19.8006952,18.6365793 20.4144331,18.499531 20.8772193,18.7954759 L24.3560607,21.0071172 L29.4993434,17.2372966 C29.9422676,16.9135448 30.5639503,17.0098759 30.8877021,17.4508138 C31.2114538,17.8937379 31.1161159,18.5144276 30.6741848,18.8391724 L24.982709,23.0112 C24.8089159,23.1383172 24.6023503,23.202869 24.3957848,23.202869" id="Fill-15" fill="#FFFFFF" fill-rule="nonzero"></path>
                            <path d="M11.4040055,9.84830897 C11.1388469,9.84830897 10.9243366,10.0638124 10.9243366,10.3279779 L10.9243366,12.5922538 L7.69575724,12.5922538 L7.69575724,10.3279779 C7.69575724,10.0638124 7.48025379,9.84830897 7.21608828,9.84830897 C6.95092966,9.84830897 6.73641931,10.0638124 6.73641931,10.3279779 L6.73641931,12.5922538 L4.15037793,12.5922538 C3.88521931,12.5922538 3.67070897,12.8067641 3.67070897,13.0719228 C3.67070897,13.3370814 3.88521931,13.5515917 4.15037793,13.5515917 L6.73641931,13.5515917 L6.73641931,16.2577986 L4.15037793,16.2577986 C3.88521931,16.2577986 3.67070897,16.472309 3.67070897,16.7374676 C3.67070897,17.0016331 3.88521931,17.2171366 4.15037793,17.2171366 L6.73641931,17.2171366 L6.73641931,19.6144883 C6.73641931,19.8796469 6.95092966,20.0931641 7.21608828,20.0931641 C7.48025379,20.0931641 7.69575724,19.8796469 7.69575724,19.6144883 L7.69575724,17.2171366 L9.63628138,17.2171366 C9.72665379,16.8923917 9.82695724,16.5726124 9.93719172,16.2577986 L7.69575724,16.2577986 L7.69575724,13.5515917 L10.9243366,13.5515917 L10.9243366,14.0044469 C11.2123366,13.4781021 11.5380745,12.978571 11.8826814,12.4929434 L11.8826814,10.3279779 C11.8826814,10.0638124 11.6691641,9.84830897 11.4040055,9.84830897" id="Fill-21" fill="#FFFFFF" fill-rule="nonzero"></path>
                            <g id="Group-25" transform="translate(0.000000, 0.816132)" fill-rule="nonzero" fill="#FFFFFF">
                                <path d="M20.9096938,1.80109241 L18.2650593,1.80109241 L18.2650593,1.1357131 C18.2650593,0.606388966 17.8360386,0.176375172 17.3067145,0.176375172 C16.7763972,0.176375172 16.3473766,0.606388966 16.3473766,1.1357131 L16.3473766,1.80109241 L7.05888,1.80109241 L7.05888,1.1357131 C7.05888,0.606388966 6.62985931,0.176375172 6.10053517,0.176375172 C5.57121103,0.176375172 5.14219034,0.606388966 5.14219034,1.1357131 L5.14219034,1.80109241 L2.49656276,1.80109241 C1.12012138,1.80109241 -9.93103423e-05,2.92230621 -9.93103423e-05,4.29874759 L-9.93103423e-05,6.7805131 L-9.93103423e-05,20.9838786 C-9.93103423e-05,22.3613131 1.12012138,23.4815338 2.49656276,23.4815338 L9.37181793,23.4815338 C9.24569379,22.8568717 9.17220414,22.2143338 9.12453517,21.563851 L2.49656276,21.563851 C2.17777655,21.563851 1.91758345,21.304651 1.91758345,20.9838786 L1.91758345,7.73985103 L15.9600662,7.73985103 C17.2451421,6.89472 18.6662731,6.24820966 20.1807559,5.82117517 C20.6107697,5.70100966 21.0447559,5.59474759 21.4886731,5.5113269 C22.1153214,5.39513379 22.7558731,5.32462345 23.4063559,5.28787862 L23.4063559,4.29874759 C23.4063559,2.92230621 22.2861352,1.80109241 20.9096938,1.80109241" id="Fill-23"></path>
                            </g>
                        </g>
                    </g>
                </g>
            </g>
        </g>
    </g>
</svg>