<?xml version="1.0" encoding="UTF-8" standalone="no"?>
<svg width="75px" height="21px" viewBox="0 0 75 21" version="1.1" xmlns="http://www.w3.org/2000/svg" xmlns:xlink="http://www.w3.org/1999/xlink" xmlns:sketch="http://www.bohemiancoding.com/sketch/ns">
    <!-- Generator: Sketch 3.4.2 (15855) - http://www.bohemiancoding.com/sketch -->
    <title>PayPal_2014_logo</title>
    <desc>Created with Sketch.</desc>
    <defs></defs>
    <g id="final" stroke="none" stroke-width="1" fill="none" fill-rule="evenodd" sketch:type="MSPage">
        <g id="Desktop-HD-Copy-25" sketch:type="MSArtboardGroup" transform="translate(-298.000000, -2316.000000)" fill="#070707">
            <g id="PayPal_2014_logo" sketch:type="MSLayerGroup" transform="translate(298.000000, 2316.000000)">
                <path d="M41.1800179,5.966478 L38.4024881,5.966478 C38.1368631,5.966478 37.8883512,6.099228 37.7395417,6.321228 L33.9076964,12.009228 L32.2841845,6.543228 C32.18225,6.201228 31.86975,5.966478 31.5155833,5.966478 L28.7856726,5.966478 C28.4560595,5.966478 28.2239167,6.293478 28.3303155,6.607728 L31.3883512,15.657228 L28.5118631,19.748478 C28.2864167,20.069478 28.514244,20.513478 28.9047202,20.513478 L31.6792738,20.513478 C31.9419226,20.513478 32.1882024,20.383728 32.3385,20.166228 L41.5751071,6.727728 C41.7960893,6.405978 41.568381,5.966478 41.1800179,5.966478 M22.6110476,11.38815 C22.3439345,12.97965 21.0909583,14.0484 19.492,14.0484 C18.6906607,14.0484 18.0485476,13.78815 17.6363452,13.29615 C17.2278631,12.80865 17.0738452,12.1134 17.2033095,11.34015 C17.4518214,9.76215 18.725631,8.65965 20.3000357,8.65965 C21.085006,8.65965 21.7219107,8.92215 22.1422976,9.41865 C22.5656607,9.9189 22.7323274,10.6179 22.6110476,11.38815 M26.4622381,5.9664 L23.6988452,5.9664 C23.4622381,5.9664 23.2606012,6.13965 23.2233988,6.3759 L23.102119,7.1544 L22.9094107,6.8724 C22.3104524,5.99715 20.976375,5.7039 19.6445298,5.7039 C16.5917024,5.7039 13.9838155,8.0364 13.476375,11.30715 C13.2122381,12.93915 13.5872381,14.4984 14.5053929,15.58665 C15.3483988,16.5864 16.5515238,17.00265 17.9853036,17.00265 C20.4466131,17.00265 21.8111964,15.40965 21.8111964,15.40965 L21.6876845,16.18365 C21.6415536,16.47765 21.867,16.7439 22.163131,16.7439 L24.6512262,16.7439 C25.0463155,16.7439 25.381881,16.45515 25.4436369,16.06215 L26.9376845,6.52665 C26.9838155,6.23265 26.757625,5.9664 26.4622381,5.9664 M9.87942262,6.0333 C9.56394643,8.1213 7.98210119,8.1213 6.45159524,8.1213 L5.58105952,8.1213 L6.19192262,4.2228 C6.22835119,3.9873 6.43001786,3.81405 6.666625,3.81405 L7.06617857,3.81405 C8.10784524,3.81405 9.09147619,3.81405 9.59891667,4.4118 C9.9024881,4.76955 9.99400595,5.30055 9.87942262,6.0333 M9.2135,0.5853 L3.44266667,0.5853 C3.04757738,0.5853 2.7120119,0.8748 2.65025595,1.2678 L0.316922619,16.1838 C0.270791667,16.4778 0.496238095,16.74405 0.791625,16.74405 L3.54757738,16.74405 C3.94192262,16.74405 4.2774881,16.45455 4.33924405,16.0623 L4.96945238,12.0378 C5.03046429,11.6448 5.36677381,11.3553 5.76111905,11.3553 L7.5870119,11.3553 C11.3883512,11.3553 13.5825476,9.5013 14.1554643,5.82555 C14.4136488,4.21905 14.165881,2.95605 13.4196012,2.0718 C12.5989167,1.0998 11.1443036,0.5853 9.2135,0.5853" id="path14519" sketch:type="MSShapeGroup"></path>
                <path d="M70.8797976,0.995178 L68.511494,16.184178 C68.4653631,16.478178 68.6908095,16.744428 68.9861964,16.744428 L71.3686369,16.744428 C71.7629821,16.744428 72.0992917,16.454928 72.1603036,16.061928 L74.495869,1.145928 C74.542,0.851928 74.3165536,0.585678 74.0204226,0.585678 L71.355244,0.585678 C71.1178929,0.585678 70.916256,0.758928 70.8797976,0.995178 M63.7716131,11.38815 C63.5045,12.97965 62.2515238,14.0484 60.6525655,14.0484 C59.8512262,14.0484 59.2091131,13.78815 58.7969107,13.29615 C58.3876845,12.80865 58.2344107,12.1134 58.363875,11.34015 C58.6123869,9.76215 59.8861964,8.65965 61.4606012,8.65965 C62.2455714,8.65965 62.8824762,8.92215 63.3028631,9.41865 C63.7262262,9.9189 63.8928929,10.6179 63.7716131,11.38815 M67.6228036,5.9664 L64.8594107,5.9664 C64.6228036,5.9664 64.4211667,6.13965 64.3839643,6.3759 L64.2626845,7.1544 L64.0692321,6.8724 C63.4710179,5.99715 62.1369405,5.7039 60.8050952,5.7039 C57.7522679,5.7039 55.144381,8.0364 54.6369405,11.30715 C54.3728036,12.93915 54.7478036,14.4984 55.6659583,15.58665 C56.5089643,16.5864 57.7120893,17.00265 59.145869,17.00265 C61.6071786,17.00265 62.9717619,15.40965 62.9717619,15.40965 L62.84825,16.18365 C62.802119,16.47765 63.0275655,16.7439 63.3236964,16.7439 L65.8117917,16.7439 C66.206881,16.7439 66.5424464,16.45515 66.6042024,16.06215 L68.09825,6.52665 C68.144381,6.23265 67.9181905,5.9664 67.6228036,5.9664 M51.0399167,6.0333 C50.7244405,8.1213 49.1425952,8.1213 47.6120893,8.1213 L46.7415536,8.1213 L47.3524167,4.2228 C47.3889048,3.9873 47.5905119,3.81405 47.827119,3.81405 L48.2266726,3.81405 C49.2683393,3.81405 50.2519702,3.81405 50.7594107,4.4118 C51.0629821,4.76955 51.1545,5.30055 51.0399167,6.0333 M50.373994,0.5853 L44.6031607,0.5853 C44.2080714,0.5853 43.872506,0.8748 43.81075,1.2678 L41.4774167,16.1838 C41.4312857,16.4778 41.6574762,16.74405 41.952119,16.74405 L44.9134286,16.74405 C45.1894702,16.74405 45.4245893,16.54155 45.467744,16.26705 L46.1299464,12.0378 C46.1909583,11.6448 46.5272679,11.3553 46.9216131,11.3553 L48.747506,11.3553 C52.5488452,11.3553 54.7430417,9.5013 55.3159583,5.82555 C55.5741429,4.21905 55.326375,2.95605 54.5800952,2.0718 C53.7594107,1.0998 52.3047976,0.5853 50.373994,0.5853" id="path14523" sketch:type="MSShapeGroup"></path>
            </g>
        </g>
    </g>
</svg>